<svg version="1.1" xmlns="http://www.w3.org/2000/svg" xmlns:xlink="http://www.w3.org/1999/xlink" width="1707.736328125" height="490"><defs/><g><g transform="translate(2,-30) scale(1,1)"><rect fill="#C0C0C0" stroke="none" x="327" y="47" width="75.3544921875" height="39" opacity="0.2"/></g><g transform="translate(2,-30) scale(1,1)"><rect fill="#ffffff" stroke="none" x="320" y="40" width="75.3544921875" height="39"/></g><g transform="translate(2,-30) scale(1,1)"><path fill="none" stroke="#000000" d="M 320 40 L 395.3544921875 40 L 395.3544921875 79 L 320 79 L 320 40 Z Z" stroke-miterlimit="10"/></g><g transform="translate(2,-30) scale(1,1)"><g><path fill="none" stroke="none"/><text fill="#000000" stroke="none" font-family="Arial" font-size="13px" font-style="normal" font-weight="bold" text-decoration="none" x="329.5" y="56.5">page.vue</text></g></g><g transform="translate(2,-30) scale(1,1)"><path fill="none" stroke="#000000" d="M 358.5 80 L 358.5 390" stroke-miterlimit="10" stroke-dasharray="3"/></g><g transform="translate(2,-30) scale(1,1)"><rect fill="#C0C0C0" stroke="none" x="551" y="47" width="74.6435546875" height="39" opacity="0.2"/></g><g transform="translate(2,-30) scale(1,1)"><rect fill="#ffffff" stroke="none" x="544" y="40" width="74.6435546875" height="39"/></g><g transform="translate(2,-30) scale(1,1)"><path fill="none" stroke="#000000" d="M 544 40 L 618.6435546875 40 L 618.6435546875 79 L 544 79 L 544 40 Z Z" stroke-miterlimit="10"/></g><g transform="translate(2,-30) scale(1,1)"><g><path fill="none" stroke="none"/><text fill="#000000" stroke="none" font-family="Arial" font-size="13px" font-style="normal" font-weight="bold" text-decoration="none" x="553.5" y="58">base.vue</text></g></g><g transform="translate(2,-30) scale(1,1)"><path fill="none" stroke="#000000" d="M 582.5 80 L 582.5 390" stroke-miterlimit="10" stroke-dasharray="3"/></g><g transform="translate(2,-30) scale(1,1)"><rect fill="#C0C0C0" stroke="none" x="1015" y="47" width="71.736328125" height="39" opacity="0.2"/></g><g transform="translate(2,-30) scale(1,1)"><rect fill="#ffffff" stroke="none" x="1008" y="40" width="71.736328125" height="39"/></g><g transform="translate(2,-30) scale(1,1)"><path fill="none" stroke="#000000" d="M 1008 40 L 1079.736328125 40 L 1079.736328125 79 L 1008 79 L 1008 40 Z Z" stroke-miterlimit="10"/></g><g transform="translate(2,-30) scale(1,1)"><g><path fill="none" stroke="none"/><text fill="#000000" stroke="none" font-family="Arial" font-size="13px" font-style="normal" font-weight="bold" text-decoration="none" x="1027.25" y="58">api.js</text></g></g><g transform="translate(2,-30) scale(1,1)"><path fill="none" stroke="#000000" d="M 1044.5 80 L 1044.5 510" stroke-miterlimit="10" stroke-dasharray="3"/></g><g transform="translate(2,-30) scale(1,1)"><rect fill="#C0C0C0" stroke="none" x="1447" y="47" width="71.74267578125" height="39" opacity="0.2"/></g><g transform="translate(2,-30) scale(1,1)"><rect fill="#ffffff" stroke="none" x="1440" y="40" width="71.74267578125" height="39"/></g><g transform="translate(2,-30) scale(1,1)"><path fill="none" stroke="#000000" d="M 1440 40 L 1511.74267578125 40 L 1511.74267578125 79 L 1440 79 L 1440 40 Z Z" stroke-miterlimit="10"/></g><g transform="translate(2,-30) scale(1,1)"><g><path fill="none" stroke="none"/><text fill="#000000" stroke="none" font-family="Arial" font-size="13px" font-style="normal" font-weight="bold" text-decoration="none" x="1449.5" y="58">backend</text></g></g><g transform="translate(2,-30) scale(1,1)"><path fill="none" stroke="#000000" d="M 1476.5 80 L 1476.5 507" stroke-miterlimit="10" stroke-dasharray="3"/></g><g transform="translate(2,-30) scale(1,1)"><rect fill="#C0C0C0" stroke="none" x="1631" y="47" width="71.736328125" height="39" opacity="0.2"/></g><g transform="translate(2,-30) scale(1,1)"><rect fill="#ffffff" stroke="none" x="1624" y="40" width="71.736328125" height="39"/></g><g transform="translate(2,-30) scale(1,1)"><path fill="none" stroke="#000000" d="M 1624 40 L 1695.736328125 40 L 1695.736328125 79 L 1624 79 L 1624 40 Z Z" stroke-miterlimit="10"/></g><g transform="translate(2,-30) scale(1,1)"><g><path fill="none" stroke="none"/><text fill="#000000" stroke="none" font-family="Arial" font-size="13px" font-style="normal" font-weight="bold" text-decoration="none" x="1650.47998046875" y="58">DB</text></g></g><g transform="translate(2,-30) scale(1,1)"><path fill="none" stroke="#000000" d="M 1660.5 80 L 1660.5 239" stroke-miterlimit="10" stroke-dasharray="3"/></g><g transform="translate(2,-30) scale(1,1)"><rect fill="#C0C0C0" stroke="none" x="815" y="47" width="83.29541015625" height="39" opacity="0.2"/></g><g transform="translate(2,-30) scale(1,1)"><rect fill="#ffffff" stroke="none" x="808" y="40" width="83.29541015625" height="39"/></g><g transform="translate(2,-30) scale(1,1)"><path fill="none" stroke="#000000" d="M 808 40 L 891.29541015625 40 L 891.29541015625 79 L 808 79 L 808 40 Z Z" stroke-miterlimit="10"/></g><g transform="translate(2,-30) scale(1,1)"><g><path fill="none" stroke="none"/><text fill="#000000" stroke="none" font-family="Arial" font-size="13px" font-style="normal" font-weight="bold" text-decoration="none" x="817.5" y="58">account.js</text></g></g><g transform="translate(2,-30) scale(1,1)"><path fill="none" stroke="#000000" d="M 850.5 80 L 850.5 362" stroke-miterlimit="10" stroke-dasharray="3"/></g><g transform="translate(2,-30) scale(1,1)"><path fill="#ffffff" stroke="none" d="M 56.99815518465909 47.3 C 56.99815518465909 43.82060576 59.87655690684091 41 63.42724609375 41 C 66.9779352806591 41 69.8563370028409 43.82060576 69.8563370028409 47.3 C 69.8563370028409 50.779394239999995 66.9779352806591 53.6 63.42724609375 53.6 C 59.87655690684091 53.6 56.99815518465909 50.779394239999995 56.99815518465909 47.3 Z"/></g><g transform="translate(2,-30) scale(1,1)"><path fill="none" stroke="#000000" d="M 56.99815518465909 47.3 C 56.99815518465909 43.82060576 59.87655690684091 41 63.42724609375 41 C 66.9779352806591 41 69.8563370028409 43.82060576 69.8563370028409 47.3 C 69.8563370028409 50.779394239999995 66.9779352806591 53.6 63.42724609375 53.6 C 59.87655690684091 53.6 56.99815518465909 50.779394239999995 56.99815518465909 47.3 Z" stroke-miterlimit="10"/></g><g transform="translate(2,-30) scale(1,1)"><path fill="none" stroke="#000000" d="M 63.42724609375 53.6 L 63.42724609375 66.4" stroke-miterlimit="10"/></g><g transform="translate(2,-30) scale(1,1)"><path fill="none" stroke="#000000" d="M 56.619973366477275 58.4 L 70.23451882102273 58.4" stroke-miterlimit="10"/></g><g transform="translate(2,-30) scale(1,1)"><path fill="none" stroke="#000000" d="M 63.42724609375 66.4 L 53.97270063920455 79" stroke-miterlimit="10"/></g><g transform="translate(2,-30) scale(1,1)"><path fill="none" stroke="#000000" d="M 63.42724609375 66.4 L 72.88179154829545 79" stroke-miterlimit="10"/></g><g transform="translate(2,-30) scale(1,1)"><g><path fill="none" stroke="none"/><text fill="#000000" stroke="none" font-family="Arial" font-size="13px" font-style="normal" font-weight="bold" text-decoration="none" x="12.5" y="98">Lifeline1: Actor1</text></g></g><g transform="translate(2,-30) scale(1,1)"><path fill="none" stroke="#000000" d="M 64.5 105 L 64.5 400" stroke-miterlimit="10" stroke-dasharray="3"/></g><g transform="translate(2,-30) scale(1,1)"><path fill="#ffffff" stroke="none" d="M 600 176 L 660 176 L 670 186 L 670 214 L 600 214 L 600 176"/></g><g transform="translate(2,-30) scale(1,1)"><path fill="none" stroke="#000000" d="M 600 176 L 660 176 L 670 186 L 670 214 L 600 214 L 600 176 L 600 176" stroke-miterlimit="10"/></g><g transform="translate(2,-30) scale(1,1)"><path fill="none" stroke="#000000" d="M 660 176 L 660 186 L 670 186 L 660 176" stroke-miterlimit="10"/></g><g transform="translate(2,-30) scale(1,1)"><g><path fill="none" stroke="none"/><text fill="#000000" stroke="none" font-family="Arial" font-size="13px" font-style="normal" font-weight="normal" text-decoration="none" x="605" y="192">表单校验</text></g></g><g transform="translate(2,-30) scale(1,1)"><path fill="#ffffff" stroke="none" d="M 1088 264 L 1148.0380859375 264 L 1158.0380859375 274 L 1158.0380859375 302 L 1088 302 L 1088 264"/></g><g transform="translate(2,-30) scale(1,1)"><path fill="none" stroke="#000000" d="M 1088 264 L 1148.0380859375 264 L 1158.0380859375 274 L 1158.0380859375 302 L 1088 302 L 1088 264 L 1088 264" stroke-miterlimit="10"/></g><g transform="translate(2,-30) scale(1,1)"><path fill="none" stroke="#000000" d="M 1148.0380859375 264 L 1148.0380859375 274 L 1158.0380859375 274 L 1148.0380859375 264" stroke-miterlimit="10"/></g><g transform="translate(2,-30) scale(1,1)"><g><path fill="none" stroke="none"/><text fill="#000000" stroke="none" font-family="Arial" font-size="13px" font-style="normal" font-weight="normal" text-decoration="none" x="1093" y="279">api/login/</text></g></g><g transform="translate(2,-30) scale(1,1)"><rect fill="#C0C0C0" stroke="none" x="1207" y="47" width="78.2744140625" height="39" opacity="0.2"/></g><g transform="translate(2,-30) scale(1,1)"><rect fill="#ffffff" stroke="none" x="1200" y="40" width="78.2744140625" height="39"/></g><g transform="translate(2,-30) scale(1,1)"><path fill="none" stroke="#000000" d="M 1200 40 L 1278.2744140625 40 L 1278.2744140625 79 L 1200 79 L 1200 40 Z Z" stroke-miterlimit="10"/></g><g transform="translate(2,-30) scale(1,1)"><g><path fill="none" stroke="none"/><text fill="#000000" stroke="none" font-family="Arial" font-size="13px" font-style="normal" font-weight="bold" text-decoration="none" x="1209.5" y="58">service.js</text></g></g><g transform="translate(2,-30) scale(1,1)"><path fill="none" stroke="#000000" d="M 1240.5 80 L 1240.5 510" stroke-miterlimit="10" stroke-dasharray="3"/></g><g transform="translate(2,-30) scale(1,1)"><path fill="none" stroke="#000000" d="M 64 128 L 351 128" stroke-miterlimit="10"/></g><g transform="translate(2,-30) scale(1,1)"><path fill="#000000" stroke="none" d="M 340.83732514237585 132.209517756016 L 351 128 L 340.83732514237585 123.79048224398402"/></g><g transform="translate(2,-30) scale(1,1)"><path fill="none" stroke="#000000" d="M 340.83732514237585 132.209517756016 L 351 128 L 340.83732514237585 123.79048224398402 L 340.83732514237585 132.209517756016" stroke-miterlimit="10"/></g><g transform="translate(2,-30) scale(1,1)"><g><path fill="none" stroke="none"/><text fill="#000000" stroke="none" font-family="Arial" font-size="13px" font-style="normal" font-weight="normal" text-decoration="none" x="93.5" y="123.5">1 : 登录页面输入用户名、密码和验证码</text></g></g><g transform="translate(2,-30) scale(1,1)"><rect fill="#ffffff" stroke="none" x="351" y="128" width="13" height="28"/></g><g transform="translate(2,-30) scale(1,1)"><path fill="none" stroke="#000000" d="M 351 128 L 364 128 L 364 156 L 351 156 L 351 128 Z Z" stroke-miterlimit="10"/></g><g transform="translate(2,-30) scale(1,1)"><path fill="none" stroke="#000000" d="M 64 224 L 351 224" stroke-miterlimit="10"/></g><g transform="translate(2,-30) scale(1,1)"><path fill="#000000" stroke="none" d="M 340.83732514237585 228.209517756016 L 351 224 L 340.83732514237585 219.790482243984"/></g><g transform="translate(2,-30) scale(1,1)"><path fill="none" stroke="#000000" d="M 340.83732514237585 228.209517756016 L 351 224 L 340.83732514237585 219.790482243984 L 340.83732514237585 228.209517756016" stroke-miterlimit="10"/></g><g transform="translate(2,-30) scale(1,1)"><g><path fill="none" stroke="none"/><text fill="#000000" stroke="none" font-family="Arial" font-size="13px" font-style="normal" font-weight="normal" text-decoration="none" x="158.5" y="219.5">2 : 点击登录按钮</text></g></g><g transform="translate(2,-30) scale(1,1)"><rect fill="#ffffff" stroke="none" x="351" y="224" width="13" height="28"/></g><g transform="translate(2,-30) scale(1,1)"><path fill="none" stroke="#000000" d="M 351 224 L 364 224 L 364 252 L 351 252 L 351 224 Z Z" stroke-miterlimit="10"/></g><g transform="translate(2,-30) scale(1,1)"><path fill="none" stroke="#000000" d="M 364 240 L 575 240" stroke-miterlimit="10"/></g><g transform="translate(2,-30) scale(1,1)"><path fill="#000000" stroke="none" d="M 564.8373251423759 244.209517756016 L 575 240 L 564.8373251423758 235.790482243984"/></g><g transform="translate(2,-30) scale(1,1)"><path fill="none" stroke="#000000" d="M 564.8373251423759 244.209517756016 L 575 240 L 564.8373251423758 235.790482243984 L 564.8373251423759 244.209517756016" stroke-miterlimit="10"/></g><g transform="translate(2,-30) scale(1,1)"><g><path fill="none" stroke="none"/><text fill="#000000" stroke="none" font-family="Arial" font-size="13px" font-style="normal" font-weight="normal" text-decoration="none" x="427.5" y="235.5">3 : submit方法</text></g></g><g transform="translate(2,-30) scale(1,1)"><rect fill="#ffffff" stroke="none" x="575" y="240" width="13" height="136"/></g><g transform="translate(2,-30) scale(1,1)"><path fill="none" stroke="#000000" d="M 575 240 L 588 240 L 588 376 L 575 376 L 575 240 Z Z" stroke-miterlimit="10"/></g><g transform="translate(2,-30) scale(1,1)"><path fill="none" stroke="#000000" d="M 588 248 L 618 248 L 618 268 L 595 268" stroke-miterlimit="10"/></g><g transform="translate(2,-30) scale(1,1)"><path fill="#000000" stroke="none" d="M 605.1626748576241 263.790482243984 L 595 268 L 605.1626748576241 272.209517756016"/></g><g transform="translate(2,-30) scale(1,1)"><path fill="none" stroke="#000000" d="M 605.1626748576241 263.790482243984 L 595 268 L 605.1626748576241 272.209517756016 L 605.1626748576241 263.790482243984" stroke-miterlimit="10"/></g><g transform="translate(2,-30) scale(1,1)"><g><path fill="none" stroke="none"/><text fill="#000000" stroke="none" font-family="Arial" font-size="13px" font-style="normal" font-weight="normal" text-decoration="none" x="612.5" y="262.5">4 : this.$refs.loginForm.validate</text></g></g><g transform="translate(2,-30) scale(1,1)"><rect fill="#ffffff" stroke="none" x="582" y="268" width="13" height="76"/></g><g transform="translate(2,-30) scale(1,1)"><path fill="none" stroke="#000000" d="M 582 268 L 595 268 L 595 344 L 582 344 L 582 268 Z Z" stroke-miterlimit="10"/></g><g transform="translate(2,-30) scale(1,1)"><path fill="none" stroke="#000000" d="M 595 304 L 843 304" stroke-miterlimit="10"/></g><g transform="translate(2,-30) scale(1,1)"><path fill="#000000" stroke="none" d="M 832.8373251423759 308.209517756016 L 843 304 L 832.8373251423758 299.790482243984"/></g><g transform="translate(2,-30) scale(1,1)"><path fill="none" stroke="#000000" d="M 832.8373251423759 308.209517756016 L 843 304 L 832.8373251423758 299.790482243984 L 832.8373251423759 308.209517756016" stroke-miterlimit="10"/></g><g transform="translate(2,-30) scale(1,1)"><g><path fill="none" stroke="none"/><text fill="#000000" stroke="none" font-family="Arial" font-size="13px" font-style="normal" font-weight="normal" text-decoration="none" x="649.5" y="291">5 : 校验成功之后，login</text></g></g><g transform="translate(2,-30) scale(1,1)"><rect fill="#ffffff" stroke="none" x="843" y="304" width="13" height="28"/></g><g transform="translate(2,-30) scale(1,1)"><path fill="none" stroke="#000000" d="M 843 304 L 856 304 L 856 332 L 843 332 L 843 304 Z Z" stroke-miterlimit="10"/></g><g transform="translate(2,-30) scale(1,1)"><path fill="none" stroke="#000000" d="M 856 320 L 1037 320" stroke-miterlimit="10"/></g><g transform="translate(2,-30) scale(1,1)"><path fill="#000000" stroke="none" d="M 1026.837325142376 324.209517756016 L 1037 320 L 1026.837325142376 315.790482243984"/></g><g transform="translate(2,-30) scale(1,1)"><path fill="none" stroke="#000000" d="M 1026.837325142376 324.209517756016 L 1037 320 L 1026.837325142376 315.790482243984 L 1026.837325142376 324.209517756016" stroke-miterlimit="10"/></g><g transform="translate(2,-30) scale(1,1)"><g><path fill="none" stroke="none"/><text fill="#000000" stroke="none" font-family="Arial" font-size="13px" font-style="normal" font-weight="normal" text-decoration="none" x="865.5" y="315.5">6 : SYS_USER_LOGIN方法</text></g></g><g transform="translate(2,-30) scale(1,1)"><rect fill="#ffffff" stroke="none" x="1037" y="320" width="13" height="28"/></g><g transform="translate(2,-30) scale(1,1)"><path fill="none" stroke="#000000" d="M 1037 320 L 1050 320 L 1050 348 L 1037 348 L 1037 320 Z Z" stroke-miterlimit="10"/></g><g transform="translate(2,-30) scale(1,1)"><path fill="none" stroke="#000000" d="M 1050 336 L 1233 336" stroke-miterlimit="10"/></g><g transform="translate(2,-30) scale(1,1)"><path fill="#000000" stroke="none" d="M 1222.837325142376 340.209517756016 L 1233 336 L 1222.837325142376 331.790482243984"/></g><g transform="translate(2,-30) scale(1,1)"><path fill="none" stroke="#000000" d="M 1222.837325142376 340.209517756016 L 1233 336 L 1222.837325142376 331.790482243984 L 1222.837325142376 340.209517756016" stroke-miterlimit="10"/></g><g transform="translate(2,-30) scale(1,1)"><g><path fill="none" stroke="none"/><text fill="#000000" stroke="none" font-family="Arial" font-size="13px" font-style="normal" font-weight="normal" text-decoration="none" x="1038.5" y="331.5">7 : 调用request请求，访问login接口</text></g></g><g transform="translate(2,-30) scale(1,1)"><rect fill="#ffffff" stroke="none" x="1233" y="336" width="13" height="160"/></g><g transform="translate(2,-30) scale(1,1)"><path fill="none" stroke="#000000" d="M 1233 336 L 1246 336 L 1246 496 L 1233 496 L 1233 336 Z Z" stroke-miterlimit="10"/></g><g transform="translate(2,-30) scale(1,1)"><path fill="none" stroke="#000000" d="M 1246 344 L 1276 344 L 1276 364 L 1253 364" stroke-miterlimit="10"/></g><g transform="translate(2,-30) scale(1,1)"><path fill="#000000" stroke="none" d="M 1263.162674857624 359.790482243984 L 1253 364 L 1263.162674857624 368.209517756016"/></g><g transform="translate(2,-30) scale(1,1)"><path fill="none" stroke="#000000" d="M 1263.162674857624 359.790482243984 L 1253 364 L 1263.162674857624 368.209517756016 L 1263.162674857624 359.790482243984" stroke-miterlimit="10"/></g><g transform="translate(2,-30) scale(1,1)"><g><path fill="none" stroke="none"/><text fill="#000000" stroke="none" font-family="Arial" font-size="13px" font-style="normal" font-weight="normal" text-decoration="none" x="1093.5" y="362">8 : createRequestFunction</text></g></g><g transform="translate(2,-30) scale(1,1)"><rect fill="#ffffff" stroke="none" x="1240" y="364" width="13" height="92"/></g><g transform="translate(2,-30) scale(1,1)"><path fill="none" stroke="#000000" d="M 1240 364 L 1253 364 L 1253 456 L 1240 456 L 1240 364 Z Z" stroke-miterlimit="10"/></g><g transform="translate(2,-30) scale(1,1)"><path fill="none" stroke="#000000" d="M 1253 376 L 1283 376 L 1283 396 L 1260 396" stroke-miterlimit="10"/></g><g transform="translate(2,-30) scale(1,1)"><path fill="#000000" stroke="none" d="M 1270.162674857624 391.790482243984 L 1260 396 L 1270.162674857624 400.209517756016"/></g><g transform="translate(2,-30) scale(1,1)"><path fill="none" stroke="#000000" d="M 1270.162674857624 391.790482243984 L 1260 396 L 1270.162674857624 400.209517756016 L 1270.162674857624 391.790482243984" stroke-miterlimit="10"/></g><g transform="translate(2,-30) scale(1,1)"><g><path fill="none" stroke="none"/><text fill="#000000" stroke="none" font-family="Arial" font-size="13px" font-style="normal" font-weight="normal" text-decoration="none" x="1278.5" y="394">9 : createService</text></g></g><g transform="translate(2,-30) scale(1,1)"><rect fill="#ffffff" stroke="none" x="1247" y="396" width="13" height="44"/></g><g transform="translate(2,-30) scale(1,1)"><path fill="none" stroke="#000000" d="M 1247 396 L 1260 396 L 1260 440 L 1247 440 L 1247 396 Z Z" stroke-miterlimit="10"/></g><g transform="translate(2,-30) scale(1,1)"><path fill="none" stroke="#000000" d="M 1260 416 L 1469 416" stroke-miterlimit="10"/></g><g transform="translate(2,-30) scale(1,1)"><path fill="#000000" stroke="none" d="M 1458.837325142376 420.209517756016 L 1469 416 L 1458.837325142376 411.790482243984"/></g><g transform="translate(2,-30) scale(1,1)"><path fill="none" stroke="#000000" d="M 1458.837325142376 420.209517756016 L 1469 416 L 1458.837325142376 411.790482243984 L 1458.837325142376 420.209517756016" stroke-miterlimit="10"/></g><g transform="translate(2,-30) scale(1,1)"><g><path fill="none" stroke="none"/><text fill="#000000" stroke="none" font-family="Arial" font-size="13px" font-style="normal" font-weight="normal" text-decoration="none" x="1325.489501953125" y="411.5">10 : 请求接口</text></g></g><g transform="translate(2,-30) scale(1,1)"><rect fill="#ffffff" stroke="none" x="1469" y="416" width="13" height="28"/></g><g transform="translate(2,-30) scale(1,1)"><path fill="none" stroke="#000000" d="M 1469 416 L 1482 416 L 1482 444 L 1469 444 L 1469 416 Z Z" stroke-miterlimit="10"/></g><g transform="translate(2,-30) scale(1,1)"><path fill="none" stroke="#000000" d="M 1476 458 L 1253 458" stroke-miterlimit="10"/></g><g transform="translate(2,-30) scale(1,1)"><path fill="#000000" stroke="none" d="M 1263.162674857624 453.790482243984 L 1253 458 L 1263.162674857624 462.209517756016"/></g><g transform="translate(2,-30) scale(1,1)"><path fill="none" stroke="#000000" d="M 1263.162674857624 453.790482243984 L 1253 458 L 1263.162674857624 462.209517756016 L 1263.162674857624 453.790482243984" stroke-miterlimit="10"/></g><g transform="translate(2,-30) scale(1,1)"><g><path fill="none" stroke="none"/><text fill="#000000" stroke="none" font-family="Arial" font-size="13px" font-style="normal" font-weight="normal" text-decoration="none" x="1311.5" y="474">11 : 后台响应数据</text></g></g><g transform="translate(2,-30) scale(1,1)"><rect fill="#ffffff" stroke="none" x="1240" y="458" width="13" height="28"/></g><g transform="translate(2,-30) scale(1,1)"><path fill="none" stroke="#000000" d="M 1240 458 L 1253 458 L 1253 486 L 1240 486 L 1240 458 Z Z" stroke-miterlimit="10"/></g></g></svg>